{
	"asset":{
		"extras":{
			"HUBS_blenderExporterVersion":"1.1.1"
		},
		"generator":"Khronos glTF Blender I/O v3.5.30",
		"version":"2.0"
	},
	"extensionsUsed":[
		"MOZ_hubs_components"
	],
	"extensions":{
		"MOZ_hubs_components":{
			"version":4,
			"exporterVersion":"1.1.1"
		}
	},
	"scene":0,
	"scenes":[
		{
			"name":"Scene",
			"nodes":[
				8
			]
		}
	],
	"nodes":[
		{
			"mesh":0,
			"name":"BezierCurve_Material_0"
		},
		{
			"children":[
				0
			],
			"name":"BezierCurve",
			"rotation":[
				-0.70710688829422,
				0,
				0,
				0.7071066498756409
			],
			"scale":[
				100,
				99.99999237060547,
				99.99999237060547
			],
			"translation":[
				0,
				0,
				1.52587890625e-05
			]
		},
		{
			"name":"Object_4"
		},
		{
			"children":[
				2
			],
			"name":"Camera.001",
			"rotation":[
				-0.19328252971172333,
				0.957015335559845,
				-0.049618616700172424,
				0.21047918498516083
			],
			"scale":[
				99.99999237060547,
				100.0000228881836,
				100.00000762939453
			],
			"translation":[
				1504.8922119140625,
				702.9802856445312,
				690.1096801757812
			]
		},
		{
			"mesh":1,
			"name":"Cube_Material_0"
		},
		{
			"children":[
				4
			],
			"name":"Cube",
			"rotation":[
				-0.70710688829422,
				0,
				0,
				0.7071066498756409
			],
			"scale":[
				32.75373458862305,
				32.75373077392578,
				32.75373077392578
			],
			"translation":[
				0,
				0,
				123.38517761230469
			]
		},
		{
			"children":[
				1,
				3,
				5
			],
			"name":"RootNode",
			"translation":[
				0,
				0,
				1.52587890625e-05
			]
		},
		{
			"children":[
				6
			],
			"name":"2c54e206c80d40afb6ba34ec1e79adae.fbx",
			"rotation":[
				0.70710688829422,
				0,
				0,
				0.7071066498756409
			],
			"scale":[
				0.009999999776482582,
				0.010000000707805157,
				0.010000000707805157
			]
		},
		{
			"children":[
				7
			],
			"extensions":{
				"MOZ_hubs_components":{
					"question":{
						"question":"What will it be? Hmm? Hmm? Hmm? A Saint? (sainte!) Or a Grinch? (grunch!)"
					}
				}
			},
			"name":"Sketchfab_model",
			"translation":[
				0,
				1.6999993324279785,
				0
			]
		}
	],
	"materials":[
		{
			"doubleSided":true,
			"name":"Material.001",
			"pbrMetallicRoughness":{
				"baseColorFactor":[
					0.800000011920929,
					0,
					0.0021078800782561302,
					1
				],
				"metallicFactor":0,
				"roughnessFactor":0.9619349241256714
			}
		}
	],
	"meshes":[
		{
			"name":"BezierCurve_Material_0",
			"primitives":[
				{
					"attributes":{
						"POSITION":0,
						"TEXCOORD_0":1,
						"NORMAL":2
					},
					"indices":3,
					"material":0
				}
			]
		},
		{
			"name":"Cube_Material_0",
			"primitives":[
				{
					"attributes":{
						"POSITION":4,
						"TEXCOORD_0":5,
						"NORMAL":6
					},
					"indices":7,
					"material":0
				}
			]
		}
	],
	"accessors":[
		{
			"bufferView":0,
			"componentType":5126,
			"count":235,
			"max":[
				1.0774681568145752,
				1.5979992151260376,
				0.2802160680294037
			],
			"min":[
				-1.0658435821533203,
				-0.7917757630348206,
				-0.2802160680294037
			],
			"type":"VEC3"
		},
		{
			"bufferView":1,
			"componentType":5126,
			"count":235,
			"type":"VEC2"
		},
		{
			"bufferView":2,
			"componentType":5126,
			"count":235,
			"type":"VEC3"
		},
		{
			"bufferView":3,
			"componentType":5123,
			"count":1290,
			"type":"SCALAR"
		},
		{
			"bufferView":4,
			"componentType":5126,
			"count":56,
			"max":[
				0.8256853222846985,
				0.8185834288597107,
				0.8212451338768005
			],
			"min":[
				-0.8185834884643555,
				-0.8181151747703552,
				-0.824870765209198
			],
			"type":"VEC3"
		},
		{
			"bufferView":5,
			"componentType":5126,
			"count":56,
			"type":"VEC2"
		},
		{
			"bufferView":6,
			"componentType":5126,
			"count":56,
			"type":"VEC3"
		},
		{
			"bufferView":7,
			"componentType":5123,
			"count":210,
			"type":"SCALAR"
		}
	],
	"bufferViews":[
		{
			"buffer":0,
			"byteLength":2820,
			"byteOffset":0,
			"target":34962
		},
		{
			"buffer":0,
			"byteLength":1880,
			"byteOffset":2820,
			"target":34962
		},
		{
			"buffer":0,
			"byteLength":2820,
			"byteOffset":4700,
			"target":34962
		},
		{
			"buffer":0,
			"byteLength":2580,
			"byteOffset":7520,
			"target":34963
		},
		{
			"buffer":0,
			"byteLength":672,
			"byteOffset":10100,
			"target":34962
		},
		{
			"buffer":0,
			"byteLength":448,
			"byteOffset":10772,
			"target":34962
		},
		{
			"buffer":0,
			"byteLength":672,
			"byteOffset":11220,
			"target":34962
		},
		{
			"buffer":0,
			"byteLength":420,
			"byteOffset":11892,
			"target":34963
		}
	],
	"buffers":[
		{
			"byteLength":12312,
			"uri":"data:application/octet-stream;base64,"
		}
	]
}
